<svg xmlns="http://www.w3.org/2000/svg" width="148" height="20" fill="none"><path fill="#277156" d="M6.18 7.55h9.48V1.24h5.9V19h-5.9v-6.8H6.18V19H.25V1.24h5.93v6.31ZM39.7 1.24h6.05v9.1c0 1.72-.48 3.28-1.44 4.68a9.92 9.92 0 0 1-3.89 3.28 12.2 12.2 0 0 1-5.35 1.18c-2.08 0-3.97-.4-5.66-1.18a10.05 10.05 0 0 1-4.04-3.24 8.1 8.1 0 0 1-1.48-4.68V1.24h6.14v9.14c0 1.46.5 2.53 1.49 3.22 1 .69 2.2 1.03 3.57 1.03.72 0 1.44-.13 2.14-.4a3.97 3.97 0 0 0 2.47-3.84V1.23Zm33.76 0V19h-5.9v-8.02L63.63 19h-5.45l-4.17-8.11V19h-5.93V1.24h6.77l6.04 12.22 5.96-12.22h6.6ZM99.8 19h-5.98l-1.65-3.05H82.1L80.46 19h-5.98L84.1 1.24h6.08L99.8 19ZM87.15 6.66l-2.88 5.28h5.74l-2.86-5.28ZM106.73 19h-5.93V1.24L106.73 19Zm16.75 0h-5.9 5.9Zm-5.9-6.89V1.24h5.9V19h-5.9L106.72 8.13V19h-5.93V1.24h5.93l10.84 10.87Zm21.39-3.67c1.56 0 2.93.11 4.1.34 1.18.2 2.17.66 2.95 1.36.8.7 1.2 1.73 1.2 3.08 0 2.48-1.1 4.16-3.31 5.04-2.2.86-4.66 1.3-7.4 1.3-2.71 0-5.23-.45-7.55-1.33a5.02 5.02 0 0 1-3.48-5.09l6.12-.02c0 1.1.5 1.8 1.49 2.11 1 .29 2.18.43 3.52.43 1.27 0 2.35-.18 3.24-.55.91-.37 1.37-.97 1.37-1.8v-.02c0-.47-.28-.81-.84-1.03a6.03 6.03 0 0 0-1.8-.41 41.3 41.3 0 0 0-2.3-.1h-1.8c-1.73 0-3.23-.1-4.51-.31a6.59 6.59 0 0 1-3.2-1.44c-.86-.74-1.3-1.82-1.3-3.26 0-2.5 1.13-4.12 3.37-4.88a23.77 23.77 0 0 1 7.68-1.15c2.69 0 5.14.44 7.36 1.32 2.23.88 3.34 2.58 3.34 5.09h-6.02c0-.8-.46-1.4-1.37-1.78-.9-.4-2-.62-3.29-.67-1.4 0-2.57.16-3.53.48-.96.32-1.44.83-1.44 1.51 0 .72.5 1.2 1.47 1.44s2.08.36 3.3.36l2.63-.02Z"/></svg>